<?xml version="1.0" standalone="no"?>
<!DOCTYPE svg PUBLIC "-//W3C//DTD SVG 20010904//EN"
 "http://www.w3.org/TR/2001/REC-SVG-20010904/DTD/svg10.dtd">
<svg version="1.0" xmlns="http://www.w3.org/2000/svg"
 width="460.000000pt" height="460.000000pt" viewBox="0 0 460.000000 460.000000"
 preserveAspectRatio="xMidYMid meet">
<metadata>
Created by potrace 1.14, written by Peter Selinger 2001-2017
</metadata>
<g transform="translate(0.000000,460.000000) scale(0.100000,-0.100000)"
fill="#000000" stroke="none">
<path d="M0 2300 l0 -2300 2300 0 2300 0 0 2300 0 2300 -2300 0 -2300 0 0
-2300z m3318 1485 c118 -17 164 -33 235 -78 72 -47 114 -91 144 -155 24 -51
25 -60 21 -200 -5 -145 -22 -244 -74 -417 -46 -150 -149 -383 -275 -615 -25
-47 -72 -134 -104 -195 -32 -60 -77 -142 -101 -183 -24 -40 -44 -76 -44 -78 0
-8 -242 -408 -293 -484 -136 -203 -263 -346 -374 -421 -40 -27 -75 -49 -78
-49 -3 0 -32 -16 -63 -37 -189 -121 -253 -112 -373 50 -100 134 -183 320 -235
524 -20 80 -10 78 -117 28 -33 -14 -61 -24 -63 -22 -3 3 31 33 76 68 l81 64
-7 51 c-15 127 66 560 151 804 61 175 126 310 170 354 42 42 201 142 280 175
57 25 68 26 245 26 237 -1 323 -18 380 -75 23 -23 40 -51 44 -73 7 -39 -6
-135 -29 -212 -27 -89 -122 -268 -192 -360 -137 -183 -391 -406 -582 -511 -83
-46 -226 -127 -249 -141 -26 -16 -26 -26 11 -148 74 -250 221 -491 332 -545
l42 -20 54 35 c142 96 342 373 631 875 149 258 179 313 275 500 179 349 248
550 289 837 32 222 -4 330 -145 428 -102 70 -300 100 -606 91 -227 -6 -292
-14 -455 -56 -389 -98 -644 -232 -865 -454 -208 -209 -297 -379 -349 -666 -62
-344 -62 -778 0 -1100 32 -167 108 -379 156 -438 6 -7 9 -14 7 -16 -11 -11
-175 -106 -182 -106 -9 0 -74 136 -89 185 -87 295 -113 483 -112 835 0 427 44
702 146 918 70 149 283 383 458 504 191 131 505 304 640 353 217 78 410 129
560 150 135 18 506 19 628 0z"/>
<path d="M2219 2874 c-31 -4 -41 -13 -76 -67 -106 -162 -220 -515 -268 -829
-14 -92 -21 -318 -10 -318 17 0 183 93 260 144 80 54 320 278 382 358 139 174
243 411 243 550 0 45 -22 89 -56 112 -50 35 -348 66 -475 50z"/>
</g>
</svg>
